<?xml version="1.0" encoding="UTF-8" standalone="no"?>
<!-- Created with Inkscape (http://www.inkscape.org/) -->

<svg
   width="280mm"
   height="504mm"
   viewBox="0 0 280 504"
   version="1.1"
   id="svg7958"
   inkscape:version="1.1 (c4e8f9e, 2021-05-24)"
   sodipodi:docname="box_screen_page_01.svg"
   xmlns:inkscape="http://www.inkscape.org/namespaces/inkscape"
   xmlns:sodipodi="http://sodipodi.sourceforge.net/DTD/sodipodi-0.dtd"
   xmlns="http://www.w3.org/2000/svg"
   xmlns:svg="http://www.w3.org/2000/svg">
  <sodipodi:namedview
     id="namedview7960"
     pagecolor="#ffffff"
     bordercolor="#666666"
     borderopacity="1.0"
     inkscape:pageshadow="2"
     inkscape:pageopacity="0.0"
     inkscape:pagecheckerboard="0"
     inkscape:document-units="mm"
     showgrid="false"
     width="277mm"
     inkscape:zoom="0.4665165"
     inkscape:cx="367.61829"
     inkscape:cy="1112.5008"
     inkscape:window-width="1792"
     inkscape:window-height="1092"
     inkscape:window-x="0"
     inkscape:window-y="28"
     inkscape:window-maximized="0"
     inkscape:current-layer="layer1" />
  <defs
     id="defs7955" />
  <g
     inkscape:label="Calque 1"
     inkscape:groupmode="layer"
     id="layer1">
    <g
       id="g7909"
       transform="translate(286.43408,-341.63345)">
      <g
         id="g7457"
         transform="translate(-280.43426,-2.3665339)">
        <path
           id="rect2305-22"
           style="fill:none;stroke:#ff0000;stroke-width:0.561173"
           d="m 35.443359,1323.1152 c -19.479848,0 -35.162109,16.8576 -35.162109,37.7969 v 529.1524 c 0,20.9393 15.682261,37.7949 35.162109,37.7949 H 974.27344 c 19.47985,0 35.16206,-16.8556 35.16206,-37.7949 v -529.1524 c 0,-20.9393 -15.68221,-37.7969 -35.16206,-37.7969 z m 190.773441,75.4981 h 496.60547 c 19.47985,0 35.16211,16.8575 35.16211,37.7969 v 377.9511 c -10e-6,20.9393 -15.68226,37.7969 -35.16211,37.7969 H 500.97656 v 21.4961 H 444.2832 v -21.4961 H 226.2168 c -19.47986,0 -35.16211,-16.8576 -35.16211,-37.7969 v -377.9511 c 0,-20.9394 15.68225,-37.7969 35.16211,-37.7969 z m -120.20118,54.4277 a 30.23622,30.23622 0 0 1 30.23633,30.2344 30.23622,30.23622 0 0 1 -30.23633,30.2363 30.23622,30.23622 0 0 1 -30.236323,-30.2363 30.23622,30.23622 0 0 1 30.236323,-30.2344 z m 687.875,92.9746 h 158.74024 v 158.7403 H 793.89062 Z m -687.875,203.5645 a 11.716535,11.716535 0 0 1 11.7168,11.7168 11.716535,11.716535 0 0 1 -11.7168,11.7168 11.716535,11.716535 0 0 1 -11.716792,-11.7168 11.716535,11.716535 0 0 1 11.716792,-11.7168 z"
           transform="scale(0.26458333)" />
        <g
           id="g7449">
          <circle
             style="fill:#000000;fill-opacity:1;stroke:none;stroke-width:0.1;stroke-opacity:1"
             id="path7176"
             cx="65"
             cy="385"
             r="1.5" />
          <circle
             style="fill:#000000;fill-opacity:1;stroke:none;stroke-width:0.1;stroke-opacity:1"
             id="path7176-5"
             cx="65"
             cy="475"
             r="1.5" />
          <circle
             style="fill:#000000;fill-opacity:1;stroke:none;stroke-width:0.1;stroke-opacity:1"
             id="path7176-1"
             cx="185"
             cy="385"
             r="1.5" />
          <circle
             style="fill:#000000;fill-opacity:1;stroke:none;stroke-width:0.1;stroke-opacity:1"
             id="path7176-5-5"
             cx="185"
             cy="475"
             r="1.5" />
        </g>
      </g>
      <rect
         style="fill:none;fill-opacity:1;stroke:#ff0000;stroke-width:0.1;stroke-opacity:1"
         id="rect7741"
         width="100"
         height="6"
         x="-204.95"
         y="400.04999"
         rx="3"
         ry="3" />
      <rect
         style="fill:none;fill-opacity:1;stroke:#ff0000;stroke-width:0.1;stroke-opacity:1"
         id="rect7741-3"
         width="100"
         height="6"
         x="-204.95"
         y="415.04999"
         rx="3"
         ry="3" />
      <rect
         style="fill:none;fill-opacity:1;stroke:#ff0000;stroke-width:0.1;stroke-opacity:1"
         id="rect7741-3-3"
         width="100"
         height="6"
         x="-204.95"
         y="430.04999"
         rx="3"
         ry="3" />
      <rect
         style="fill:none;fill-opacity:1;stroke:#ff0000;stroke-width:0.1;stroke-opacity:1"
         id="rect7741-3-3-3"
         width="100"
         height="6"
         x="-204.95"
         y="445.04999"
         rx="3"
         ry="3" />
      <rect
         style="fill:none;fill-opacity:1;stroke:#ff0000;stroke-width:0.1;stroke-opacity:1"
         id="rect7741-3-3-5"
         width="100"
         height="6"
         x="-204.95"
         y="460.04999"
         rx="3"
         ry="3" />
    </g>
    <g
       id="g7717"
       transform="translate(5.9998245,-177.99999)">
      <path
         id="rect2305-02-6-3"
         style="fill:none;stroke:#ff0000;stroke-width:0.561173"
         d="m 35.443359,1323.1152 c -19.479846,0 -35.162109,16.8576 -35.162109,37.7969 v 529.1504 c 0,20.9393 15.682263,37.7969 35.162109,37.7969 H 974.27344 c 19.4798,0 35.16206,-16.8576 35.16206,-37.7969 v -529.1504 c 0,-20.9393 -15.68226,-37.7969 -35.16206,-37.7969 z m 59.027344,37.7657 h 94.667967 v 94.082 h 0.041 a 56.692908,56.692908 0 0 0 -0.0137,0.3437 56.692908,56.692908 0 0 0 56.6914,56.6934 56.692908,56.692908 0 0 0 56.69336,-56.6934 56.692908,56.692908 0 0 0 -0.004,-0.3437 h 1.43164 v -94.082 h 338.69726 v 94.082 h 0.041 a 56.692908,56.692908 0 0 0 -0.0156,0.3437 56.692908,56.692908 0 0 0 56.69141,56.6934 56.692908,56.692908 0 0 0 56.69336,-56.6934 56.692908,56.692908 0 0 0 -0.004,-0.3437 h 1.43164 v -94.082 h 157.73438 v 56.4218 h 56.42187 v 416.3692 h -56.42187 v 56.4199 H 757.51367 v -94.1621 h -1.43164 a 56.692702,56.846755 0 0 0 0.004,-0.3438 56.692702,56.846755 0 0 0 -56.69336,-56.8476 56.692702,56.846755 0 0 0 -56.69141,56.8476 56.692702,56.846755 0 0 0 0.0156,0.3438 h -0.041 v 94.1621 H 303.9707 v -94.1621 h -1.43164 a 56.692701,56.846769 0 0 0 0.006,-0.3438 56.692701,56.846769 0 0 0 -56.69336,-56.8476 56.692701,56.846769 0 0 0 -56.6914,56.8476 56.692701,56.846769 0 0 0 0.0137,0.3438 h -0.041 v 94.1621 H 94.470703 v -56.4199 H 38.048828 v -416.3692 h 56.421875 z m 132.490237,75.5293 h 37.79492 v 37.7949 h -37.79492 z m 453.53711,0 h 37.79492 v 37.7949 H 680.49805 Z M 226.95508,1776.6367 H 264.75 v 37.8965 h -37.79492 z m 453.54297,0 h 37.79492 v 37.8965 h -37.79492 z"
         transform="scale(0.26458333)" />
      <path
         id="path2850-75-7-1"
         style="fill:#000000;fill-opacity:1;stroke:none;stroke-width:0.1"
         d="m 15.00026,363.49966 a 1.5,1.5 0 0 0 -1.50017,1.50017 1.5,1.5 0 0 0 1.50017,1.50016 1.5,1.5 0 0 0 1.50016,-1.50016 1.5,1.5 0 0 0 -1.50016,-1.50017 z m 237,0 a 1.5,1.5 0 0 0 -1.50017,1.50017 1.5,1.5 0 0 0 1.50017,1.50016 1.5,1.5 0 0 0 1.50016,-1.50016 1.5,1.5 0 0 0 -1.50016,-1.50017 z m -237,130.00033 a 1.5,1.5 0 0 0 -1.50017,1.49965 1.5,1.5 0 0 0 1.50017,1.50017 1.5,1.5 0 0 0 1.50016,-1.50017 1.5,1.5 0 0 0 -1.50016,-1.49965 z m 237,0 a 1.5,1.5 0 0 0 -1.50017,1.49965 1.5,1.5 0 0 0 1.50017,1.50017 1.5,1.5 0 0 0 1.50016,-1.50017 1.5,1.5 0 0 0 -1.50016,-1.49965 z" />
    </g>
    <path
       id="rect5869"
       style="fill:none;fill-opacity:1;stroke:#ff0000;stroke-width:0.1;stroke-opacity:1"
       d="M 15.353306,338.05 C 10.199249,338.05 6.05,342.51024 6.05,348.05043 v 140.00438 c 0,5.54019 4.149249,10.0004 9.303306,10.0004 H 263.7521 c 5.15403,0 9.30331,-4.46021 9.30331,-10.0004 V 348.05043 c 0,-5.54019 -4.14928,-10.00043 -9.30331,-10.00043 z m 0.672835,9.97614 h 9.999901 v 9.9999 h -9.999901 z m 237.037189,0 h 9.99993 v 9.9999 h -9.99993 z m -217.037388,0.0161 H 243.06343 v 19.9838 h 19.99983 v 100.03679 h -19.92849 v 19.99982 H 36.025942 V 468.06287 H 16.042678 V 368.02608 H 36.025942 Z M 16.026141,478.06273 h 9.999901 v 9.99992 h -9.999901 z m 237.108529,0 h 10.00043 v 9.99992 h -10.00043 z" />
    <g
       id="g2049"
       transform="rotate(90,-202.92411,307.3886)">
      <circle
         style="fill:#000000;fill-opacity:1;stroke:none;stroke-width:0.1"
         id="path14530-6-1-2"
         cx="-59.026974"
         cy="-67.800598"
         r="1" />
      <circle
         style="fill:#000000;fill-opacity:1;stroke:none;stroke-width:0.1"
         id="path14530-5-7-7-1"
         cx="-129.02698"
         cy="45.19939"
         r="1" />
      <circle
         style="fill:#000000;fill-opacity:1;stroke:none;stroke-width:0.1"
         id="path14530-9-8-7-0"
         cx="-59.026974"
         cy="45.19939"
         r="1" />
      <circle
         style="fill:#000000;fill-opacity:1;stroke:none;stroke-width:0.1"
         id="path14530-2-8-3-4"
         cx="-129.02698"
         cy="-67.800598"
         r="1" />
      <rect
         style="fill:none;stroke:#ff0000;stroke-width:0.112999"
         id="rect14088-30-6-8"
         width="89.887001"
         height="135.88699"
         x="-138.97047"
         y="-79.744095"
         rx="10.000454"
         ry="9.3147984" />
      <path
         id="rect13776-1-5-1-9"
         style="fill:none;stroke:#ff0000;stroke-width:0.1"
         d="m -108.97564,-71.750593 v 4.89531 h 1.9973 v 9.90069 h -13.99863 v 94.99987 h 53.999798 v -94.99987 h -14.000689 v -9.90069 h 1.89756 v -4.89531 z" />
    </g>
  </g>
</svg>
