<?xml version="1.0" encoding="UTF-8" standalone="no"?>
<!-- Created with Inkscape (http://www.inkscape.org/) -->

<svg
   width="210mm"
   height="297mm"
   viewBox="0 0 210 297"
   version="1.1"
   id="svg13750"
   inkscape:version="1.1 (c4e8f9e, 2021-05-24)"
   sodipodi:docname="device_ccs811_bem280_work_0.1.svg"
   xmlns:inkscape="http://www.inkscape.org/namespaces/inkscape"
   xmlns:sodipodi="http://sodipodi.sourceforge.net/DTD/sodipodi-0.dtd"
   xmlns="http://www.w3.org/2000/svg"
   xmlns:svg="http://www.w3.org/2000/svg">
  <sodipodi:namedview
     id="namedview13752"
     pagecolor="#ffffff"
     bordercolor="#666666"
     borderopacity="1.0"
     inkscape:pageshadow="2"
     inkscape:pageopacity="0.0"
     inkscape:pagecheckerboard="0"
     inkscape:document-units="mm"
     showgrid="false"
     inkscape:zoom="0.70910507"
     inkscape:cx="338.45478"
     inkscape:cy="1038.6331"
     inkscape:window-width="1323"
     inkscape:window-height="1003"
     inkscape:window-x="0"
     inkscape:window-y="25"
     inkscape:window-maximized="0"
     inkscape:current-layer="layer1" />
  <defs
     id="defs13747" />
  <g
     inkscape:label="Calque 1"
     inkscape:groupmode="layer"
     id="layer1">
    <path
       id="rect13776"
       style="fill:none;stroke:#ff0000;stroke-width:0.1"
       d="m 83.32078,6.4374851 v 4.8953089 h 1.9973 v 9.900687 H 71.31945 v 94.999879 h 53.9998 V 21.233481 h -14.00069 v -9.900687 h 1.89756 V 6.4374851 Z" />
    <rect
       style="fill:none;stroke:#ff0000;stroke-width:0.1"
       id="rect13776-9"
       width="54"
       height="95"
       x="10.052923"
       y="12.094087" />
    <rect
       style="fill:none;stroke:#ff0000;stroke-width:0.1"
       id="rect14316"
       width="8"
       height="8"
       x="16.049999"
       y="251.05" />
    <rect
       style="fill:none;stroke:#ff0000;stroke-width:0.1"
       id="rect14316-9"
       width="8"
       height="8"
       x="86.050003"
       y="251.05" />
    <rect
       style="fill:none;stroke:#ff0000;stroke-width:0.1"
       id="rect14316-7"
       width="8"
       height="8"
       x="16.049999"
       y="138.05" />
    <rect
       style="fill:none;stroke:#ff0000;stroke-width:0.1"
       id="rect14316-9-3"
       width="8"
       height="8"
       x="86.050011"
       y="138.05" />
    <circle
       style="fill:#000000;fill-opacity:1;stroke:none;stroke-width:0.1"
       id="path14530"
       cx="90"
       cy="142"
       r="1" />
    <circle
       style="fill:#000000;fill-opacity:1;stroke:none;stroke-width:0.1"
       id="path14530-5"
       cx="20"
       cy="255"
       r="1" />
    <circle
       style="fill:#000000;fill-opacity:1;stroke:none;stroke-width:0.1"
       id="path14530-9"
       cx="90"
       cy="255"
       r="1" />
    <circle
       style="fill:#000000;fill-opacity:1;stroke:none;stroke-width:0.1"
       id="path14530-2"
       cx="20"
       cy="142"
       r="1" />
    <rect
       style="fill:none;fill-opacity:1;stroke:#ff0000;stroke-width:0.105584;stroke-opacity:1"
       id="rect15149"
       width="14.894416"
       height="17.994415"
       x="30.052792"
       y="247.84866" />
    <rect
       style="fill:none;stroke:#ff0000;stroke-width:0.1"
       id="rect14316-98"
       width="8"
       height="8"
       x="116.19205"
       y="251.88838" />
    <rect
       style="fill:none;stroke:#ff0000;stroke-width:0.1"
       id="rect14316-9-34"
       width="8"
       height="8"
       x="186.19205"
       y="251.88838" />
    <rect
       style="fill:none;stroke:#ff0000;stroke-width:0.1"
       id="rect14316-7-8"
       width="8"
       height="8"
       x="116.19205"
       y="138.8884" />
    <rect
       style="fill:none;stroke:#ff0000;stroke-width:0.1"
       id="rect14316-9-3-1"
       width="8"
       height="8"
       x="186.19206"
       y="138.8884" />
    <circle
       style="fill:#000000;fill-opacity:1;stroke:none;stroke-width:0.1"
       id="path14530-95"
       cx="190.14204"
       cy="142.83839"
       r="1" />
    <circle
       style="fill:#000000;fill-opacity:1;stroke:none;stroke-width:0.1"
       id="path14530-5-0"
       cx="120.14205"
       cy="255.83839"
       r="1" />
    <circle
       style="fill:#000000;fill-opacity:1;stroke:none;stroke-width:0.1"
       id="path14530-9-9"
       cx="190.14204"
       cy="255.83839"
       r="1" />
    <circle
       style="fill:#000000;fill-opacity:1;stroke:none;stroke-width:0.1"
       id="path14530-2-7"
       cx="120.14205"
       cy="142.83839"
       r="1" />
    <rect
       style="fill:none;fill-opacity:1;stroke:#ff0000;stroke-width:0.105584;stroke-opacity:1"
       id="rect15149-1"
       width="14.894416"
       height="17.994415"
       x="130.19484"
       y="248.68706" />
    <rect
       style="fill:none;stroke:#ff0000;stroke-width:0.112999"
       id="rect14088"
       width="89.887001"
       height="135.88699"
       x="10.056499"
       y="130.05649"
       rx="10.000454"
       ry="9.3147984" />
    <rect
       style="fill:none;stroke:#ff0000;stroke-width:0.112999"
       id="rect14088-7"
       width="89.887001"
       height="135.88699"
       x="100.0565"
       y="273.09082"
       rx="10.000454"
       ry="9.3147984" />
    <circle
       style="fill:#000000;fill-opacity:1;stroke:none;stroke-width:0.1"
       id="path14530-0"
       cx="213.83675"
       cy="-5.2037344"
       r="1" />
    <circle
       style="fill:#000000;fill-opacity:1;stroke:none;stroke-width:0.1"
       id="path14530-5-1"
       cx="143.83675"
       cy="107.79629"
       r="1" />
    <circle
       style="fill:#000000;fill-opacity:1;stroke:none;stroke-width:0.1"
       id="path14530-9-5"
       cx="213.83675"
       cy="107.79629"
       r="1" />
    <circle
       style="fill:#000000;fill-opacity:1;stroke:none;stroke-width:0.1"
       id="path14530-2-9"
       cx="143.83675"
       cy="-5.2037344"
       r="1" />
    <path
       id="rect14088-2"
       style="fill:none;stroke:#ff0000;stroke-width:0.427083"
       d="M 543.84961 -64.808594 C 522.91008 -64.808594 506.05273 -49.107383 506.05273 -29.603516 L 506.05273 413.57422 C 506.05273 433.07809 522.91008 448.7793 543.84961 448.7793 L 581.63086 448.7793 L 581.63086 380.39062 L 637.92188 380.39062 L 637.92188 448.7793 L 807.98633 448.7793 C 828.92586 448.7793 845.7832 433.07809 845.7832 413.57422 L 845.7832 -29.603516 C 845.7832 -49.107383 828.92586 -64.808594 807.98633 -64.808594 L 543.84961 -64.808594 z "
       transform="scale(0.26458333)" />
    <path
       id="rect14088-3"
       style="fill:none;stroke:#ff0000;stroke-width:0.427083"
       d="M 454.29492 494.7207 C 433.35539 494.7207 416.49805 510.42191 416.49805 529.92578 L 416.49805 589.38086 L 424.01367 589.38086 L 424.01367 608.2793 L 476.96484 608.2793 L 476.96484 589.125 L 484.50586 589.125 L 484.50586 580.85352 L 537.41406 580.85352 L 537.41406 543.43359 L 529.86523 543.43359 L 529.86523 524.93164 L 642.85547 524.93164 L 642.85547 543.43359 L 635.68359 543.43359 L 635.68359 580.85352 L 688.59961 580.85352 L 688.59961 589.37891 L 696.09766 589.37891 L 696.09766 608.27734 L 748.75586 608.27734 L 748.75586 589.12305 L 756.22852 589.12305 L 756.22852 529.92578 C 756.22852 510.42191 739.37117 494.7207 718.43164 494.7207 L 454.29492 494.7207 z M 424.01367 702.50781 L 424.01367 721.66211 L 416.49805 721.66211 L 416.49805 973.10352 C 416.49805 992.60738 433.35539 1008.3086 454.29492 1008.3086 L 718.43164 1008.3086 C 739.37117 1008.3086 756.22852 992.60738 756.22852 973.10352 L 756.22852 721.40625 L 748.75586 721.40625 L 748.75586 702.50781 L 696.09766 702.50781 L 696.09766 721.66211 L 688.59961 721.66211 L 688.59961 939.9082 L 484.50586 939.9082 L 484.50586 721.40625 L 476.96484 721.40625 L 476.96484 702.50781 L 424.01367 702.50781 z "
       transform="scale(0.26458333)" />
    <path
       id="rect14088-3-3"
       style="fill:none;stroke:#ff0000;stroke-width:0.427083"
       d="M 855.17383 709.17383 L 855.17383 728.32812 L 847.6582 728.32812 L 847.6582 979.76953 C 847.6582 999.27341 864.51555 1014.9746 885.45508 1014.9746 L 1149.5918 1014.9746 C 1170.5313 1014.9746 1187.3887 999.27341 1187.3887 979.76953 L 1187.3887 728.07227 L 1179.916 728.07227 L 1179.916 709.17383 L 1127.2578 709.17383 L 1127.2578 728.32812 L 1119.7598 728.32812 L 1119.7598 946.57422 L 915.66602 946.57422 L 915.66602 728.07227 L 908.125 728.07227 L 908.125 709.17383 L 855.17383 709.17383 z M 870.31055 958.68555 L 900.54688 958.68555 L 900.54688 988.92188 L 870.31055 988.92188 L 870.31055 958.68555 z M 1134.877 958.68555 L 1165.1133 958.68555 L 1165.1133 988.92188 L 1134.877 988.92188 L 1134.877 958.68555 z "
       transform="scale(0.26458333)" />
    <path
       id="rect14088-3-3-2"
       style="fill:none;stroke:#ff0000;stroke-width:0.112999"
       d="m 236.72721,147.01208 c -5.54025,0 -10.00041,4.15427 -10.00041,9.31467 v 15.73082 h 1.9885 v 5.00022 h 14.01001 v -5.06791 h 1.99522 v -2.1885 h 13.99863 v -9.90069 h -1.99731 v -4.8953 h 29.89535 v 4.8953 h -1.89757 v 9.90069 h 14.00069 v 2.25568 h 1.98388 v 5.00021 h 13.93248 v -5.06791 h 1.97712 v -15.66261 c 0,-5.1604 -4.46018,-9.31467 -10.0004,-9.31467 z m -4.00699,7.99331 h 8.00002 v 8.00002 h -8.00002 z m 69.99986,0 h 8.00002 v 8.00002 h -8.00002 z" />
    <path
       id="rect13776-1"
       style="fill:none;stroke:#ff0000;stroke-width:0.1"
       d="m 40.05133,138.05 v 4.89531 h 1.9973 V 152.846 H 28.05 v 94.99987 H 82.0498 V 152.846 H 68.04911 v -9.90069 h 1.89756 V 138.05 Z" />
    <path
       id="rect14732"
       style="fill:none;fill-opacity:1;stroke:#ff0000;stroke-width:0.0679119;stroke-opacity:1"
       d="m 97.966111,155.03396 v 5.0679 H 84.033629 v -5.00021 h -1.999877 v 5.00021 24.93181 5.06791 h 1.999877 v -5.06791 h 13.932482 v 5.00022 h 1.999879 v -5.00022 -24.93181 -5.0679 z" />
    <path
       id="rect14732-8"
       style="fill:none;fill-opacity:1;stroke:#ff0000;stroke-width:0.0679119;stroke-opacity:1"
       d="m 25.966316,155.03396 v 5.0679 h -13.93248 v -5.00021 h -1.99988 v 5.00021 24.93181 5.06791 h 1.99988 v -5.06791 h 13.93248 v 5.00022 h 1.99988 v -5.00022 -24.93181 -5.0679 z" />
    <circle
       style="fill:#000000;fill-opacity:1;stroke:none;stroke-width:0.1"
       id="path14530-5-0-8"
       cx="236.9178"
       cy="109.6389"
       r="1" />
    <circle
       style="fill:#000000;fill-opacity:1;stroke:none;stroke-width:0.1"
       id="path14530-9-9-4"
       cx="306.91782"
       cy="109.6389"
       r="1" />
    <path
       id="rect14088-3-0"
       style="fill:none;stroke:#ff0000;stroke-width:0.427083"
       d="M 865.37109 149.94336 L 865.37109 169.09766 L 857.85547 169.09766 L 857.85547 420.53906 C 857.85547 440.0429 874.71282 455.74414 895.65234 455.74414 L 1159.7891 455.74414 C 1180.7286 455.74414 1197.5859 440.0429 1197.5859 420.53906 L 1197.5859 168.8418 L 1190.1133 168.8418 L 1190.1133 149.94336 L 1137.4551 149.94336 L 1137.4551 169.09766 L 1129.957 169.09766 L 1129.957 387.34375 L 925.86328 387.34375 L 925.86328 168.8418 L 918.32227 168.8418 L 918.32227 149.94336 L 865.37109 149.94336 z "
       transform="scale(0.26458333)" />
    <circle
       style="fill:#000000;fill-opacity:1;stroke:none;stroke-width:0.1"
       id="path14530-95-63-7"
       cx="418.69946"
       cy="-4.8866177"
       r="1" />
    <circle
       style="fill:#000000;fill-opacity:1;stroke:none;stroke-width:0.1"
       id="path14530-2-7-6-2"
       cx="348.69943"
       cy="-4.8866177"
       r="1" />
    <path
       id="rect14088-3-0-6"
       style="fill:none;stroke:#ff0000;stroke-width:0.427083"
       d="M 1318.1328 -63.609375 C 1297.1933 -63.609375 1280.3359 -47.908171 1280.3359 -28.404297 L 1280.3359 31.050781 L 1287.8516 31.050781 L 1287.8516 49.949219 L 1340.8027 49.949219 L 1340.8027 30.794922 L 1348.3438 30.794922 L 1348.3438 22.523438 L 1401.252 22.523438 L 1401.252 -14.896484 L 1393.7031 -14.896484 L 1393.7031 -33.398438 L 1506.6934 -33.398438 L 1506.6934 -14.896484 L 1499.5215 -14.896484 L 1499.5215 22.523438 L 1552.4375 22.523438 L 1552.4375 31.048828 L 1559.9355 31.048828 L 1559.9355 49.947266 L 1612.5938 49.947266 L 1612.5938 30.792969 L 1620.0664 30.792969 L 1620.0664 -28.404297 C 1620.0664 -47.908171 1603.2091 -63.609375 1582.2695 -63.609375 L 1318.1328 -63.609375 z "
       transform="scale(0.26458333)" />
    <circle
       style="fill:#000000;fill-opacity:1;stroke:none;stroke-width:0.1"
       id="path14530-5-0-8-7-3"
       cx="356.40631"
       cy="256.24756"
       r="1" />
    <path
       id="rect14088-3-0-6-5"
       style="fill:none;stroke:#ff0000;stroke-width:0.427083"
       d="M 1316.9805 704.05469 L 1316.9805 723.20898 L 1309.4648 723.20898 L 1309.4648 974.65039 C 1309.4648 994.15423 1326.3222 1009.8555 1347.2617 1009.8555 L 1385.0352 1009.8555 L 1385.0352 941.45508 L 1377.4727 941.45508 L 1377.4727 722.95312 L 1369.9316 722.95312 L 1369.9316 704.05469 L 1316.9805 704.05469 z "
       transform="scale(0.26458333)" />
    <circle
       style="fill:#000000;fill-opacity:1;stroke:none;stroke-width:0.1"
       id="path14530-9-9-4-6-5-9"
       cx="430.13742"
       cy="255.62399"
       r="1" />
    <path
       id="rect14088-3-0-6-5-1"
       style="fill:none;stroke:#ff0000;stroke-width:0.112999"
       d="m 424.17119,185.65734 v 5.06791 h -1.98385 v 57.74427 H 385.0821 v 18.09761 h 44.99829 c 5.54027,0 10.00043,-4.15429 10.00043,-9.31468 v -66.5949 h -1.97715 v -5.00021 z" />
    <circle
       style="fill:none;fill-opacity:1;stroke:#ff0000;stroke-width:0.1;stroke-opacity:1"
       id="path17809"
       cx="130.05"
       cy="305.177"
       r="5" />
    <circle
       style="fill:none;fill-opacity:1;stroke:#ff0000;stroke-width:0.1;stroke-opacity:1"
       id="path17809-0"
       cx="160.05"
       cy="305.10901"
       r="5" />
    <text
       xml:space="preserve"
       style="font-style:normal;font-weight:normal;font-size:14.1111px;line-height:1.25;font-family:sans-serif;fill:#000000;fill-opacity:1;stroke:none;stroke-width:0.264583"
       x="145.11086"
       y="356.58267"
       id="text8873"><tspan
         sodipodi:role="line"
         id="tspan8871"
         style="font-style:normal;font-variant:normal;font-weight:bold;font-stretch:normal;font-size:14.1111px;font-family:Arial;-inkscape-font-specification:'Arial Bold';text-align:center;text-anchor:middle;stroke-width:0.264583"
         x="145.11086"
         y="356.58267">CO2</tspan><tspan
         sodipodi:role="line"
         style="font-style:normal;font-variant:normal;font-weight:bold;font-stretch:normal;font-size:14.1111px;font-family:Arial;-inkscape-font-specification:'Arial Bold';text-align:center;text-anchor:middle;stroke-width:0.264583"
         x="145.11086"
         y="374.38489"
         id="tspan10081">Sensor 2</tspan></text>
  </g>
</svg>
