<?xml version="1.0" encoding="UTF-8" standalone="no"?>
<!-- Created with Inkscape (http://www.inkscape.org/) -->

<svg
   width="210mm"
   height="297mm"
   viewBox="0 0 210 297"
   version="1.1"
   id="svg5"
   inkscape:version="1.1 (c4e8f9e, 2021-05-24)"
   sodipodi:docname="device_ccs811_bem280.svg"
   xmlns:inkscape="http://www.inkscape.org/namespaces/inkscape"
   xmlns:sodipodi="http://sodipodi.sourceforge.net/DTD/sodipodi-0.dtd"
   xmlns="http://www.w3.org/2000/svg"
   xmlns:svg="http://www.w3.org/2000/svg">
  <sodipodi:namedview
     id="namedview7"
     pagecolor="#ffffff"
     bordercolor="#666666"
     borderopacity="1.0"
     inkscape:pageshadow="2"
     inkscape:pageopacity="0.0"
     inkscape:pagecheckerboard="0"
     inkscape:document-units="mm"
     showgrid="false"
     inkscape:zoom="0.72383956"
     inkscape:cx="48.353257"
     inkscape:cy="271.469"
     inkscape:window-width="1323"
     inkscape:window-height="1003"
     inkscape:window-x="205"
     inkscape:window-y="25"
     inkscape:window-maximized="0"
     inkscape:current-layer="layer1" />
  <defs
     id="defs2">
    <inkscape:path-effect
       effect="powerclip"
       id="path-effect1712"
       is_visible="true"
       lpeversion="1"
       inverse="true"
       flatten="false"
       hide_clip="false"
       message="Utilise la règle de remplissage « fill-rule: evenodd » de la boîte de dialogue &lt;b&gt;Fond et contour&lt;/b&gt; en l'absence de résultat de mise à plat après une conversion en chemin." />
    <filter
       id="mask-powermask-path-effect1344_inverse"
       inkscape:label="filtermask-powermask-path-effect1344"
       style="color-interpolation-filters:sRGB"
       height="100"
       width="100"
       x="-50"
       y="-50">
      <feColorMatrix
         id="mask-powermask-path-effect1344_primitive1"
         values="1"
         type="saturate"
         result="fbSourceGraphic" />
      <feColorMatrix
         id="mask-powermask-path-effect1344_primitive2"
         values="-1 0 0 0 1 0 -1 0 0 1 0 0 -1 0 1 0 0 0 1 0 "
         in="fbSourceGraphic" />
    </filter>
    <filter
       id="mask-powermask-path-effect1349_inverse"
       inkscape:label="filtermask-powermask-path-effect1349"
       style="color-interpolation-filters:sRGB"
       height="100"
       width="100"
       x="-50"
       y="-50">
      <feColorMatrix
         id="mask-powermask-path-effect1349_primitive1"
         values="1"
         type="saturate"
         result="fbSourceGraphic" />
      <feColorMatrix
         id="mask-powermask-path-effect1349_primitive2"
         values="-1 0 0 0 1 0 -1 0 0 1 0 0 -1 0 1 0 0 0 1 0 "
         in="fbSourceGraphic" />
    </filter>
    <filter
       id="mask-powermask-path-effect1364_inverse"
       inkscape:label="filtermask-powermask-path-effect1364"
       style="color-interpolation-filters:sRGB"
       height="100"
       width="100"
       x="-50"
       y="-50">
      <feColorMatrix
         id="mask-powermask-path-effect1364_primitive1"
         values="1"
         type="saturate"
         result="fbSourceGraphic" />
      <feColorMatrix
         id="mask-powermask-path-effect1364_primitive2"
         values="-1 0 0 0 1 0 -1 0 0 1 0 0 -1 0 1 0 0 0 1 0 "
         in="fbSourceGraphic" />
    </filter>
    <filter
       id="mask-powermask-path-effect1369_inverse"
       inkscape:label="filtermask-powermask-path-effect1369"
       style="color-interpolation-filters:sRGB"
       height="100"
       width="100"
       x="-50"
       y="-50">
      <feColorMatrix
         id="mask-powermask-path-effect1369_primitive1"
         values="1"
         type="saturate"
         result="fbSourceGraphic" />
      <feColorMatrix
         id="mask-powermask-path-effect1369_primitive2"
         values="-1 0 0 0 1 0 -1 0 0 1 0 0 -1 0 1 0 0 0 1 0 "
         in="fbSourceGraphic" />
    </filter>
    <clipPath
       clipPathUnits="userSpaceOnUse"
       id="clipPath1708">
      <rect
         style="display:block;fill:none;fill-opacity:1;stroke:#ff0000;stroke-width:0.499999;stroke-miterlimit:4;stroke-dasharray:none;stroke-opacity:1"
         id="rect1710"
         width="19.56275"
         height="12.335657"
         x="64.054787"
         y="141.09462"
         rx="4.99999"
         ry="4.99999"
         clip-path="none" />
    </clipPath>
  </defs>
  <g
     inkscape:label="Calque 1"
     inkscape:groupmode="layer"
     id="layer1">
    <path
       id="rect3412"
       style="fill:none;fill-opacity:1;stroke:#ff0000;stroke-width:0.529847;stroke-miterlimit:4;stroke-dasharray:none;stroke-opacity:1"
       d="m 182.68979,138.19791 h -4.99969 v -0.98495 h -56.10873 c -4.08663,0 -7.37681,4.05289 -7.37681,9.0873 v 7.88687 h 4.98522 v -1.9911 h 58.50031 v -0.99993 h 4.99969 z m -59.89971,6.49987 a 1.5999998,1.5999998 0 0 1 -1.60042,1.60042 1.5999998,1.5999998 0 0 1 -1.5999,-1.60042 1.5999998,1.5999998 0 0 1 1.5999,-1.5999 1.5999998,1.5999998 0 0 1 1.60042,1.5999 z" />
    <path
       id="rect3412-43-6"
       style="fill:none;fill-opacity:1;stroke:#ff0000;stroke-width:0.529847;stroke-miterlimit:4;stroke-dasharray:none;stroke-opacity:1"
       d="M 189.74061,6.2649235 V 11.26462 h -0.98495 v 58.500303 h -37.49074 v 4.98523 h 43.3865 c 5.03441,0 9.0873,-3.29019 9.0873,-7.376815 V 11.26462 h -0.99994 V 6.2649235 Z m 7.01352,59.8997025 a 1.5999997,1.5999997 0 0 1 1.5999,1.60042 1.5999997,1.5999997 0 0 1 -1.5999,1.599904 1.5999997,1.5999997 0 0 1 -1.60042,-1.599904 1.5999997,1.5999997 0 0 1 1.60042,-1.60042 z" />
    <path
       id="rect3412-4-4"
       style="fill:none;fill-opacity:1;stroke:#ff0000;stroke-width:0.529847;stroke-miterlimit:4;stroke-dasharray:none;stroke-opacity:1"
       d="m 184.40151,207.17685 h -4.99969 v -0.98651 h -56.10873 c -4.08662,0 -7.3768,4.05289 -7.3768,9.0873 v 65.29524 c 0,5.03441 3.29018,9.0873 7.3768,9.0873 h 56.10873 v -0.9834 h 4.99969 v -13.00179 h -4.99969 v -0.99787 h -58.5003 v -53.50371 h 58.5003 v -0.99839 h 4.99969 z m -57.72051,2.73368 v 7.52977 h -7.52925 v -7.52977 z m 0,68.99992 v 7.52977 h -7.52925 v -7.52977 z" />
    <path
       id="rect3412-4-4-0"
       style="fill:none;fill-opacity:1;stroke:#ff0000;stroke-width:0.529847;stroke-miterlimit:4;stroke-dasharray:none;stroke-opacity:1"
       d="m 167.2285,115.04012 h -4.9997 v -0.9865 h -56.10872 c -4.08663,0 -7.376808,4.05289 -7.376808,9.0873 v 65.29525 c 0,5.03441 3.290178,9.0873 7.376808,9.0873 h 56.10872 v -0.9834 h 4.9997 v -13.00179 h -4.9997 v -0.99787 h -58.5003 v -53.50372 h 58.5003 v -0.99839 h 4.9997 z m -59.89971,6.49831 a 1.5999998,1.5999998 0 0 1 -1.60041,1.60042 1.5999998,1.5999998 0 0 1 -1.59991,-1.60042 1.5999998,1.5999998 0 0 1 1.59991,-1.5999 1.5999998,1.5999998 0 0 1 1.60041,1.5999 z m 0,69.00045 a 1.5999998,1.5999998 0 0 1 -1.60041,1.5999 1.5999998,1.5999998 0 0 1 -1.59991,-1.5999 1.5999998,1.5999998 0 0 1 1.59991,-1.60042 1.5999998,1.5999998 0 0 1 1.60041,1.60042 z" />
    <path
       id="rect3412-4-4-1"
       style="fill:none;fill-opacity:1;stroke:#ff0000;stroke-width:0.529847;stroke-miterlimit:4;stroke-dasharray:none;stroke-opacity:1"
       d="m 133.55834,243.02483 h 4.99969 v 0.9865 h 56.10872 c 4.08663,0 7.37681,-4.05289 7.37681,-9.0873 v -65.29524 c 0,-5.03441 -3.29018,-9.0873 -7.37681,-9.0873 h -56.10872 v 0.9834 h -4.99969 v 13.00179 h 4.99969 v 0.99787 h 58.5003 v 53.50372 h -58.5003 v 0.99838 h -4.99969 z m 59.8997,-6.49831 a 1.5999998,1.5999998 0 0 1 1.60041,-1.60042 1.5999998,1.5999998 0 0 1 1.59991,1.60042 1.5999998,1.5999998 0 0 1 -1.59991,1.5999 1.5999998,1.5999998 0 0 1 -1.60041,-1.5999 z m 0,-69.00044 a 1.5999998,1.5999998 0 0 1 1.60041,-1.59991 1.5999998,1.5999998 0 0 1 1.59991,1.59991 1.5999998,1.5999998 0 0 1 -1.59991,1.60041 1.5999998,1.5999998 0 0 1 -1.60041,-1.60041 z" />
    <path
       id="rect3412-4-4-7-4"
       style="fill:none;fill-opacity:1;stroke:#ff0000;stroke-width:0.529847;stroke-miterlimit:4;stroke-dasharray:none;stroke-opacity:1"
       d="m 105.35223,6.2649235 c -5.03441,0 -9.087306,3.2896651 -9.087306,7.3762925 V 26.24975 h 0.98651 v 5.000212 H 110.2496 V 26.24975 h 0.99839 v -0.0036 h 13.50202 V 14.247898 h -0.99994 v -2.999817 h 28.99978 v 2.999817 h -0.99994 v 11.998235 h 13.00179 v 0.0036 h 0.99787 v 5.000212 h 13.00179 v -5.000212 h 0.98341 V 13.641216 c 0,-4.0866274 -4.0529,-7.3762925 -9.08731,-7.3762925 z m -5.411556,3.6757451 h 7.619166 v 7.6191724 h -7.619166 z m 68.999916,0 h 7.61918 v 7.6191724 h -7.61918 z" />
    <path
       id="rect3412-4-4-7-4-8"
       style="fill:none;fill-opacity:1;stroke:#ff0000;stroke-width:0.529847;stroke-miterlimit:4;stroke-dasharray:none;stroke-opacity:1"
       d="m 80.517838,160.08706 c 5.0344,0 9.0873,-3.28966 9.0873,-7.3763 v -12.60853 h -0.9865 v -5.00021 h -12.99818 v 5.00021 h -0.99838 v 0.004 h -13.50202 v 11.99825 h 0.99994 v 2.99982 h -28.99978 v -2.99982 h 0.99994 v -11.99823 h -13.00179 v -0.004 h -0.99787 v -5.00021 H 7.1187082 v 5.00021 h -0.98341 v 12.60851 c 0,4.08664 4.0528898,7.3763 9.0872998,7.3763 z m 1.60249,-5.88491 a 1.5999997,1.5999997 0 0 1 -1.60042,-1.59991 1.5999997,1.5999997 0 0 1 1.60042,-1.60041 1.5999997,1.5999997 0 0 1 1.5999,1.60041 1.5999997,1.5999997 0 0 1 -1.5999,1.59991 z m -68.99992,0 a 1.5999998,1.5999998 0 0 1 -1.60042,-1.59991 1.5999998,1.5999998 0 0 1 1.60042,-1.60041 1.5999998,1.5999998 0 0 1 1.5999,1.60041 1.5999998,1.5999998 0 0 1 -1.5999,1.59991 z" />
    <path
       id="rect3412-4-4-7-4-6"
       style="fill:none;fill-opacity:1;stroke:#ff0000;stroke-width:0.529847;stroke-miterlimit:4;stroke-dasharray:none;stroke-opacity:1"
       d="m 172.42426,104.95034 c 5.0344,0 9.0873,-3.28966 9.0873,-7.376287 v -12.60854 h -0.98651 v -5.00021 h -12.99817 v 5.00021 h -0.99839 v 0.004 h -13.50201 v 11.99825 h 0.99993 v 2.99982 h -28.99978 v -2.99982 h 0.99994 v -11.99823 h -13.00179 v -0.004 h -0.99787 v -5.00021 H 99.025121 v 5.00021 h -0.9834 v 12.60852 c 0,4.086627 4.052889,7.376287 9.087299,7.376287 z m 1.60248,-5.884907 a 1.5999997,1.5999997 0 0 1 -1.60042,-1.5999 1.5999997,1.5999997 0 0 1 1.60042,-1.60042 1.5999997,1.5999997 0 0 1 1.5999,1.60042 1.5999997,1.5999997 0 0 1 -1.5999,1.5999 z m -68.99992,0 a 1.5999998,1.5999998 0 0 1 -1.60042,-1.5999 1.5999998,1.5999998 0 0 1 1.60042,-1.60042 1.5999998,1.5999998 0 0 1 1.5999,1.60042 1.5999998,1.5999998 0 0 1 -1.5999,1.5999 z" />
    <path
       id="rect3412-5"
       style="fill:none;fill-opacity:1;stroke:#ff0000;stroke-width:0.529847;stroke-miterlimit:4;stroke-dasharray:none;stroke-opacity:1"
       d="m 15.352224,6.2649235 c -5.034407,0 -9.0873005,3.2896626 -9.0873005,7.3762935 V 117.3584 c 0,4.08664 4.0528935,7.37681 9.0873005,7.37681 h 65.295237 c 5.034407,0 9.087302,-3.29017 9.087302,-7.37681 V 13.641217 c 0,-4.0866309 -4.052895,-7.3762935 -9.087302,-7.3762935 z M 31.249962,31.249962 a 5,5 0 0 1 5.00021,5.00021 5,5 0 0 1 -5.00021,4.999696 5,5 0 0 1 -5.000212,-4.999696 5,5 0 0 1 5.000212,-5.00021 z m 33.99999,0 a 5,5 0 0 1 5.000212,5.00021 5,5 0 0 1 -5.000212,4.999696 5,5 0 0 1 -5.000212,-4.999696 5,5 0 0 1 5.000212,-5.00021 z" />
    <path
       id="rect3412-5-7"
       style="fill:none;fill-opacity:1;stroke:#ff0000;stroke-width:0.529847;stroke-miterlimit:4;stroke-dasharray:none;stroke-opacity:1"
       d="m 15.352224,170.46173 c -5.034406,0 -9.0873005,3.29019 -9.0873005,7.37681 V 281.5552 c 0,4.08664 4.0528945,7.37681 9.0873005,7.37681 h 7.886856 v -4.99607 h 14.021885 v 4.99607 h 43.386496 c 5.034407,0 9.087302,-3.29017 9.087302,-7.37681 V 177.83854 c 0,-4.08662 -4.052895,-7.37681 -9.087302,-7.37681 z m -1.90221,5.58519 a 1.5999999,1.5999999 0 0 1 1.599903,1.5999 1.5999999,1.5999999 0 0 1 -1.599903,1.5999 1.5999999,1.5999999 0 0 1 -1.599902,-1.5999 1.5999999,1.5999999 0 0 1 1.599902,-1.5999 z m 68.999921,0 a 1.5999999,1.5999999 0 0 1 1.599904,1.5999 1.5999999,1.5999999 0 0 1 -1.599904,1.5999 1.5999999,1.5999999 0 0 1 -1.599901,-1.5999 1.5999999,1.5999999 0 0 1 1.599901,-1.5999 z M 13.450014,280.04677 a 1.6,1.6 0 0 1 1.599903,1.5999 1.6,1.6 0 0 1 -1.599903,1.60042 1.6,1.6 0 0 1 -1.599902,-1.60042 1.6,1.6 0 0 1 1.599902,-1.5999 z m 68.999921,0 a 1.6,1.6 0 0 1 1.599904,1.5999 1.6,1.6 0 0 1 -1.599904,1.60042 1.6,1.6 0 0 1 -1.599901,-1.60042 1.6,1.6 0 0 1 1.599901,-1.5999 z" />
    <path
       id="rect3412-4-4-7-4-7"
       style="fill:none;fill-opacity:1;stroke:#ff0000;stroke-width:0.529847;stroke-miterlimit:4;stroke-dasharray:none;stroke-opacity:1"
       d="m 105.35222,38.264924 c -5.0344,0 -9.087296,3.28966 -9.087296,7.37629 v 12.60853 h 0.9865 v 5.00022 H 110.2496 v -5.00022 h 0.99838 v -0.004 h 13.50203 v -11.99824 h -0.99994 v -2.99981 h 28.99978 v 2.99981 h -0.99994 v 11.99824 h 13.00175 v 0.004 h 0.99788 v 5.00022 h 13.00178 v -5.00022 h 0.98341 v -12.60853 c 0,-4.08663 -4.05289,-7.37629 -9.0873,-7.37629 z m -1.60249,5.88491 a 1.5999997,1.5999997 0 0 1 1.60042,1.5999 1.5999997,1.5999997 0 0 1 -1.60042,1.60042 1.5999997,1.5999997 0 0 1 -1.5999,-1.60042 1.5999997,1.5999997 0 0 1 1.5999,-1.5999 z m 68.9999,0 a 1.5999998,1.5999998 0 0 1 1.60041,1.5999 1.5999998,1.5999998 0 0 1 -1.60041,1.60042 1.5999998,1.5999998 0 0 1 -1.59991,-1.60042 1.5999998,1.5999998 0 0 1 1.59991,-1.5999 z" />
    <text
       xml:space="preserve"
       style="font-style:normal;font-weight:normal;font-size:14.1111px;line-height:1.25;font-family:sans-serif;fill:#000000;fill-opacity:1;stroke:none;stroke-width:0.264583"
       x="52.110851"
       y="87.361099"
       id="text8873"><tspan
         sodipodi:role="line"
         id="tspan8871"
         style="font-style:normal;font-variant:normal;font-weight:bold;font-stretch:normal;font-size:14.1111px;font-family:Arial;-inkscape-font-specification:'Arial Bold';text-align:center;text-anchor:middle;stroke-width:0.264583"
         x="52.110851"
         y="87.361099">CO2</tspan><tspan
         sodipodi:role="line"
         style="font-style:normal;font-variant:normal;font-weight:bold;font-stretch:normal;font-size:14.1111px;font-family:Arial;-inkscape-font-specification:'Arial Bold';text-align:center;text-anchor:middle;stroke-width:0.264583"
         x="52.110851"
         y="105.16332"
         id="tspan10081">Sensor 2</tspan></text>
  </g>
</svg>
