<?xml version="1.0" encoding="UTF-8" standalone="no"?>
<!-- Created with Inkscape (http://www.inkscape.org/) -->

<svg
   width="210mm"
   height="297mm"
   viewBox="0 0 210 297"
   version="1.1"
   id="svg5"
   inkscape:version="1.1 (c4e8f9e, 2021-05-24)"
   sodipodi:docname="device_ccs811_bem280.svg"
   xmlns:inkscape="http://www.inkscape.org/namespaces/inkscape"
   xmlns:sodipodi="http://sodipodi.sourceforge.net/DTD/sodipodi-0.dtd"
   xmlns="http://www.w3.org/2000/svg"
   xmlns:svg="http://www.w3.org/2000/svg">
  <sodipodi:namedview
     id="namedview7"
     pagecolor="#ffffff"
     bordercolor="#666666"
     borderopacity="1.0"
     inkscape:pageshadow="2"
     inkscape:pageopacity="0.0"
     inkscape:pagecheckerboard="0"
     inkscape:document-units="mm"
     showgrid="false"
     inkscape:zoom="0.72383956"
     inkscape:cx="274.9228"
     inkscape:cy="574.02223"
     inkscape:window-width="1323"
     inkscape:window-height="1003"
     inkscape:window-x="205"
     inkscape:window-y="25"
     inkscape:window-maximized="0"
     inkscape:current-layer="layer1" />
  <defs
     id="defs2">
    <inkscape:path-effect
       effect="powerclip"
       id="path-effect1712"
       is_visible="true"
       lpeversion="1"
       inverse="true"
       flatten="false"
       hide_clip="false"
       message="Utilise la règle de remplissage « fill-rule: evenodd » de la boîte de dialogue &lt;b&gt;Fond et contour&lt;/b&gt; en l'absence de résultat de mise à plat après une conversion en chemin." />
    <filter
       id="mask-powermask-path-effect1344_inverse"
       inkscape:label="filtermask-powermask-path-effect1344"
       style="color-interpolation-filters:sRGB"
       height="100"
       width="100"
       x="-50"
       y="-50">
      <feColorMatrix
         id="mask-powermask-path-effect1344_primitive1"
         values="1"
         type="saturate"
         result="fbSourceGraphic" />
      <feColorMatrix
         id="mask-powermask-path-effect1344_primitive2"
         values="-1 0 0 0 1 0 -1 0 0 1 0 0 -1 0 1 0 0 0 1 0 "
         in="fbSourceGraphic" />
    </filter>
    <filter
       id="mask-powermask-path-effect1349_inverse"
       inkscape:label="filtermask-powermask-path-effect1349"
       style="color-interpolation-filters:sRGB"
       height="100"
       width="100"
       x="-50"
       y="-50">
      <feColorMatrix
         id="mask-powermask-path-effect1349_primitive1"
         values="1"
         type="saturate"
         result="fbSourceGraphic" />
      <feColorMatrix
         id="mask-powermask-path-effect1349_primitive2"
         values="-1 0 0 0 1 0 -1 0 0 1 0 0 -1 0 1 0 0 0 1 0 "
         in="fbSourceGraphic" />
    </filter>
    <filter
       id="mask-powermask-path-effect1364_inverse"
       inkscape:label="filtermask-powermask-path-effect1364"
       style="color-interpolation-filters:sRGB"
       height="100"
       width="100"
       x="-50"
       y="-50">
      <feColorMatrix
         id="mask-powermask-path-effect1364_primitive1"
         values="1"
         type="saturate"
         result="fbSourceGraphic" />
      <feColorMatrix
         id="mask-powermask-path-effect1364_primitive2"
         values="-1 0 0 0 1 0 -1 0 0 1 0 0 -1 0 1 0 0 0 1 0 "
         in="fbSourceGraphic" />
    </filter>
    <filter
       id="mask-powermask-path-effect1369_inverse"
       inkscape:label="filtermask-powermask-path-effect1369"
       style="color-interpolation-filters:sRGB"
       height="100"
       width="100"
       x="-50"
       y="-50">
      <feColorMatrix
         id="mask-powermask-path-effect1369_primitive1"
         values="1"
         type="saturate"
         result="fbSourceGraphic" />
      <feColorMatrix
         id="mask-powermask-path-effect1369_primitive2"
         values="-1 0 0 0 1 0 -1 0 0 1 0 0 -1 0 1 0 0 0 1 0 "
         in="fbSourceGraphic" />
    </filter>
    <clipPath
       clipPathUnits="userSpaceOnUse"
       id="clipPath1708">
      <rect
         style="display:block;fill:none;fill-opacity:1;stroke:#ff0000;stroke-width:0.499999;stroke-miterlimit:4;stroke-dasharray:none;stroke-opacity:1"
         id="rect1710"
         width="19.56275"
         height="12.335657"
         x="64.054787"
         y="141.09462"
         rx="4.99999"
         ry="4.99999"
         clip-path="none" />
    </clipPath>
  </defs>
  <g
     inkscape:label="Calque 1"
     inkscape:groupmode="layer"
     id="layer1">
    <path
       id="rect3412"
       style="fill:none;fill-opacity:1;stroke:#ff0000;stroke-width:0.529847;stroke-miterlimit:4;stroke-dasharray:none;stroke-opacity:1"
       d="m 140.57951,213.72867 v 4.99969 h -0.98495 v 56.10872 c 0,4.08663 4.05289,7.37681 9.0873,7.37681 h 7.88686 v -4.98522 h -1.9911 v -58.50031 h -0.99993 v -4.99969 z m 6.49986,59.8997 a 1.5999998,1.5999998 0 0 1 1.60042,1.60042 1.5999998,1.5999998 0 0 1 -1.60042,1.5999 1.5999998,1.5999998 0 0 1 -1.5999,-1.5999 1.5999998,1.5999998 0 0 1 1.5999,-1.60042 z" />
    <path
       id="rect3412-43-6"
       style="fill:none;fill-opacity:1;stroke:#ff0000;stroke-width:0.529847;stroke-miterlimit:4;stroke-dasharray:none;stroke-opacity:1"
       d="m 189.43282,36.312281 v 4.999696 h -0.98495 V 99.81228 h -37.49074 v 4.98523 h 43.3865 c 5.03441,0 9.0873,-3.29019 9.0873,-7.376815 V 41.311977 h -0.99994 v -4.999696 z m 7.01352,59.899702 a 1.5999997,1.5999997 0 0 1 1.5999,1.60042 1.5999997,1.5999997 0 0 1 -1.5999,1.599904 1.5999997,1.5999997 0 0 1 -1.60042,-1.599904 1.5999997,1.5999997 0 0 1 1.60042,-1.60042 z" />
    <path
       id="rect3412-4-4"
       style="fill:none;fill-opacity:1;stroke:#ff0000;stroke-width:2.00257;stroke-miterlimit:4;stroke-dasharray:none;stroke-opacity:1"
       d="M 363.78516 851.39453 L 363.78516 870.29102 L 360.05664 870.29102 L 360.05664 1082.3555 C 360.05664 1097.801 375.37463 1110.2363 394.40234 1110.2363 L 641.1875 1110.2363 C 660.21519 1110.2363 675.5332 1097.801 675.5332 1082.3555 L 675.5332 870.29102 L 671.81641 870.29102 L 671.81641 851.39453 L 622.67578 851.39453 L 622.67578 870.29102 L 618.9043 870.29102 L 618.9043 1091.3945 L 416.68555 1091.3945 L 416.68555 870.29102 L 412.91211 870.29102 L 412.91211 851.39453 L 363.78516 851.39453 z M 374.11719 1069.5508 L 402.57617 1069.5508 L 402.57617 1098.0078 L 374.11719 1098.0078 L 374.11719 1069.5508 z M 634.9043 1069.5508 L 663.36328 1069.5508 L 663.36328 1098.0078 L 634.9043 1098.0078 L 634.9043 1069.5508 z "
       transform="scale(0.26458333)" />
    <path
       id="rect3412-4-4-0"
       style="fill:none;fill-opacity:1;stroke:#ff0000;stroke-width:0.529847;stroke-miterlimit:4;stroke-dasharray:none;stroke-opacity:1"
       d="m 91.506406,132.03151 v 4.9997 h -0.986501 v 56.10872 c 0,4.08663 4.052891,7.37681 9.087301,7.37681 h 65.295254 c 5.03441,0 9.0873,-3.29018 9.0873,-7.37681 v -56.10872 h -0.9834 v -4.9997 h -13.00179 v 4.9997 h -0.99787 v 58.5003 h -53.50372 v -58.5003 h -0.99839 v -4.9997 z m 6.49831,59.89971 a 1.5999998,1.5999998 0 0 1 1.60042,1.60041 1.5999998,1.5999998 0 0 1 -1.60042,1.59991 1.5999998,1.5999998 0 0 1 -1.599897,-1.59991 1.5999998,1.5999998 0 0 1 1.599897,-1.60041 z m 69.000454,0 a 1.5999998,1.5999998 0 0 1 1.5999,1.60041 1.5999998,1.5999998 0 0 1 -1.5999,1.59991 1.5999998,1.5999998 0 0 1 -1.60042,-1.59991 1.5999998,1.5999998 0 0 1 1.60042,-1.60041 z" />
    <path
       id="rect3412-4-4-1"
       style="fill:none;fill-opacity:1;stroke:#ff0000;stroke-width:0.529847;stroke-miterlimit:4;stroke-dasharray:none;stroke-opacity:1"
       d="m 200.14224,273.52447 v -4.99969 h 0.9865 v -56.10872 c 0,-4.08663 -4.05289,-7.37681 -9.0873,-7.37681 H 126.7462 c -5.03441,0 -9.0873,3.29018 -9.0873,7.37681 v 56.10872 h 0.9834 v 4.99969 h 13.00179 v -4.99969 h 0.99787 v -58.5003 h 53.50372 v 58.5003 h 0.99838 v 4.99969 z m -6.49831,-59.8997 a 1.5999998,1.5999998 0 0 1 -1.60042,-1.60041 1.5999998,1.5999998 0 0 1 1.60042,-1.59991 1.5999998,1.5999998 0 0 1 1.5999,1.59991 1.5999998,1.5999998 0 0 1 -1.5999,1.60041 z m -69.00044,0 a 1.5999998,1.5999998 0 0 1 -1.59991,-1.60041 1.5999998,1.5999998 0 0 1 1.59991,-1.59991 1.5999998,1.5999998 0 0 1 1.60041,1.59991 1.5999998,1.5999998 0 0 1 -1.60041,1.60041 z" />
    <path
       id="rect3412-4-4-7-4"
       style="fill:none;fill-opacity:1;stroke:#ff0000;stroke-width:2.00257;stroke-miterlimit:4;stroke-dasharray:none;stroke-opacity:1"
       d="M 413.29883 114.38672 C 394.27117 114.38672 378.95312 126.8201 378.95312 142.26562 L 378.95312 189.91992 L 382.68164 189.91992 L 382.68164 208.81836 L 431.80859 208.81836 L 431.80859 189.91992 L 435.58203 189.91992 L 435.58203 189.90625 L 486.61328 189.90625 L 486.61328 144.55859 L 482.83398 144.55859 L 482.83398 133.2207 L 592.43945 133.2207 L 592.43945 144.55859 L 588.66016 144.55859 L 588.66016 189.90625 L 637.80078 189.90625 L 637.80078 189.91992 L 641.57227 189.91992 L 641.57227 208.81836 L 690.71289 208.81836 L 690.71289 189.91992 L 694.42969 189.91992 L 694.42969 142.26562 C 694.42969 126.8201 679.11168 114.38672 660.08398 114.38672 L 413.29883 114.38672 z M 392.8457 128.2793 L 421.64258 128.2793 L 421.64258 157.07617 L 392.8457 157.07617 L 392.8457 128.2793 z M 653.63281 128.2793 L 682.42969 128.2793 L 682.42969 157.07617 L 653.63281 157.07617 L 653.63281 128.2793 z "
       transform="scale(0.26458333)" />
    <path
       id="rect3412-4-4-7-4-8"
       style="fill:none;fill-opacity:1;stroke:#ff0000;stroke-width:0.529847;stroke-miterlimit:4;stroke-dasharray:none;stroke-opacity:1"
       d="m 154.30333,116.0435 c 0,-5.0344 -3.28966,-9.0873 -7.3763,-9.0873 H 134.3185 v 0.9865 h -5.00021 v 12.99818 h 5.00021 v 0.99838 h 0.004 v 13.50202 h 11.99825 v -0.99994 h 2.99982 v 28.99978 h -2.99982 v -0.99994 h -11.99823 v 13.00179 h -0.004 v 0.99787 h -5.00021 v 13.00179 h 5.00021 v 0.98341 h 12.60851 c 4.08664,0 7.3763,-4.05289 7.3763,-9.0873 z m -5.88491,-1.60249 a 1.5999997,1.5999997 0 0 1 -1.59991,1.60042 1.5999997,1.5999997 0 0 1 -1.60041,-1.60042 1.5999997,1.5999997 0 0 1 1.60041,-1.5999 1.5999997,1.5999997 0 0 1 1.59991,1.5999 z m 0,68.99992 a 1.5999998,1.5999998 0 0 1 -1.59991,1.60042 1.5999998,1.5999998 0 0 1 -1.60041,-1.60042 1.5999998,1.5999998 0 0 1 1.60041,-1.5999 1.5999998,1.5999998 0 0 1 1.59991,1.5999 z" />
    <path
       id="rect3412-4-4-7-4-6"
       style="fill:none;fill-opacity:1;stroke:#ff0000;stroke-width:0.529847;stroke-miterlimit:4;stroke-dasharray:none;stroke-opacity:1"
       d="m 205.63619,125.60517 c 0,-5.0344 -3.28966,-9.0873 -7.37629,-9.0873 h -12.60854 v 0.98651 h -5.00021 v 12.99817 h 5.00021 v 0.99839 h 0.004 v 13.50201 h 11.99825 v -0.99993 h 2.99982 v 28.99978 h -2.99982 v -0.99994 h -11.99823 v 13.00179 h -0.004 v 0.99787 h -5.00021 v 13.00179 h 5.00021 v 0.9834 h 12.60852 c 4.08663,0 7.37629,-4.05289 7.37629,-9.0873 z m -5.88491,-1.60248 a 1.5999997,1.5999997 0 0 1 -1.5999,1.60042 1.5999997,1.5999997 0 0 1 -1.60042,-1.60042 1.5999997,1.5999997 0 0 1 1.60042,-1.5999 1.5999997,1.5999997 0 0 1 1.5999,1.5999 z m 0,68.99992 a 1.5999998,1.5999998 0 0 1 -1.5999,1.60042 1.5999998,1.5999998 0 0 1 -1.60042,-1.60042 1.5999998,1.5999998 0 0 1 1.60042,-1.5999 1.5999998,1.5999998 0 0 1 1.5999,1.5999 z" />
    <path
       id="rect3412-5"
       style="fill:none;fill-opacity:1;stroke:#ff0000;stroke-width:2.00257;stroke-miterlimit:4;stroke-dasharray:none;stroke-opacity:1"
       d="M 73.142578 38.796875 C 54.1149 38.796875 38.796875 51.230246 38.796875 66.675781 L 38.796875 458.67773 C 38.796875 474.12327 54.1149 486.55859 73.142578 486.55859 L 319.92773 486.55859 C 338.95541 486.55859 354.27344 474.12327 354.27344 458.67773 L 354.27344 66.675781 C 354.27344 51.230246 338.95541 38.796875 319.92773 38.796875 L 73.142578 38.796875 z M 133.22852 133.22852 A 18.897638 18.897638 0 0 1 152.12695 152.12695 A 18.897638 18.897638 0 0 1 133.22852 171.02344 A 18.897638 18.897638 0 0 1 114.33008 152.12695 A 18.897638 18.897638 0 0 1 133.22852 133.22852 z M 261.73242 133.22852 A 18.897638 18.897638 0 0 1 280.63086 152.12695 A 18.897638 18.897638 0 0 1 261.73242 171.02344 A 18.897638 18.897638 0 0 1 242.83398 152.12695 A 18.897638 18.897638 0 0 1 261.73242 133.22852 z "
       transform="scale(0.26458333)" />
    <path
       id="rect3412-5-7"
       style="fill:none;fill-opacity:1;stroke:#ff0000;stroke-width:0.529847;stroke-miterlimit:4;stroke-dasharray:none;stroke-opacity:1"
       d="m 13.618716,170.46173 c -5.0344067,0 -9.0873007,3.29019 -9.0873007,7.37681 V 281.5552 c 0,4.08664 4.052894,7.37681 9.0873007,7.37681 h 7.886856 v -4.99607 h 14.021885 v 4.99607 h 43.386496 c 5.034407,0 9.087302,-3.29017 9.087302,-7.37681 V 177.83854 c 0,-4.08662 -4.052895,-7.37681 -9.087302,-7.37681 z m -1.90221,5.58519 a 1.5999999,1.5999999 0 0 1 1.599903,1.5999 1.5999999,1.5999999 0 0 1 -1.599903,1.5999 1.5999999,1.5999999 0 0 1 -1.599902,-1.5999 1.5999999,1.5999999 0 0 1 1.599902,-1.5999 z m 68.999921,0 a 1.5999999,1.5999999 0 0 1 1.599904,1.5999 1.5999999,1.5999999 0 0 1 -1.599904,1.5999 1.5999999,1.5999999 0 0 1 -1.599901,-1.5999 1.5999999,1.5999999 0 0 1 1.599901,-1.5999 z M 11.716506,280.04677 a 1.6,1.6 0 0 1 1.599903,1.5999 1.6,1.6 0 0 1 -1.599903,1.60042 1.6,1.6 0 0 1 -1.599902,-1.60042 1.6,1.6 0 0 1 1.599902,-1.5999 z m 68.999921,0 a 1.6,1.6 0 0 1 1.599904,1.5999 1.6,1.6 0 0 1 -1.599904,1.60042 1.6,1.6 0 0 1 -1.599901,-1.60042 1.6,1.6 0 0 1 1.599901,-1.5999 z" />
    <path
       id="rect3412-4-4-7-4-7"
       style="fill:none;fill-opacity:1;stroke:#ff0000;stroke-width:0.529847;stroke-miterlimit:4;stroke-dasharray:none;stroke-opacity:1"
       d="m 109.33748,148.51951 c 0,5.0344 3.28966,9.0873 7.37629,9.0873 h 12.60853 v -0.9865 h 5.00022 v -12.99818 h -5.00022 v -0.99838 h -0.004 v -13.50202 h -11.99824 v 0.99994 h -2.99981 v -28.99978 h 2.99981 v 0.99994 H 129.3183 V 89.120073 h 0.004 v -0.99788 h 5.00022 v -13.00178 h -5.00022 v -0.98341 h -12.60853 c -4.08663,0 -7.37629,4.05289 -7.37629,9.0873 z m 5.88491,1.60249 a 1.5999997,1.5999997 0 0 1 1.5999,-1.60042 1.5999997,1.5999997 0 0 1 1.60042,1.60042 1.5999997,1.5999997 0 0 1 -1.60042,1.5999 1.5999997,1.5999997 0 0 1 -1.5999,-1.5999 z m 0,-68.999897 a 1.5999998,1.5999998 0 0 1 1.5999,-1.60041 1.5999998,1.5999998 0 0 1 1.60042,1.60041 1.5999998,1.5999998 0 0 1 -1.60042,1.59991 1.5999998,1.5999998 0 0 1 -1.5999,-1.59991 z" />
    <text
       xml:space="preserve"
       style="font-style:normal;font-weight:normal;font-size:14.1111px;line-height:1.25;font-family:sans-serif;fill:#000000;fill-opacity:1;stroke:none;stroke-width:0.264583"
       x="52.110851"
       y="87.361099"
       id="text8873"><tspan
         sodipodi:role="line"
         id="tspan8871"
         style="font-style:normal;font-variant:normal;font-weight:bold;font-stretch:normal;font-size:14.1111px;font-family:Arial;-inkscape-font-specification:'Arial Bold';text-align:center;text-anchor:middle;stroke-width:0.264583"
         x="52.110851"
         y="87.361099">CO2</tspan><tspan
         sodipodi:role="line"
         style="font-style:normal;font-variant:normal;font-weight:bold;font-stretch:normal;font-size:14.1111px;font-family:Arial;-inkscape-font-specification:'Arial Bold';text-align:center;text-anchor:middle;stroke-width:0.264583"
         x="52.110851"
         y="105.16332"
         id="tspan10081">Sensor 2</tspan></text>
  </g>
</svg>
